<svg width="69" height="81" viewBox="0 0 69 81" fill="none" xmlns="http://www.w3.org/2000/svg">
<path fill-rule="evenodd" clip-rule="evenodd" d="M2.96988 64.2401C2.15806 64.9756 1.65507 66.062 1.67979 67.2636L1.87762 76.8729C1.92209 79.0352 3.65831 80.7516 5.75547 80.7069L10.6063 80.6038C12.8425 80.5562 14.9583 79.5524 16.4471 77.8323C21.1322 72.4201 17.3014 63.8474 10.2644 63.997L3.21685 64.147C3.12651 64.1489 3.03776 64.1783 2.96989 64.2401L2.96988 64.2401ZM35.639 63.4572L64.1156 62.8515C65.2448 62.8276 66.5263 62.4136 67.294 63.2683C67.9036 63.9468 68.2839 64.8492 68.3044 65.8465L68.5023 75.4555C68.5468 77.6178 66.883 79.4065 64.7856 79.4511L35.9807 80.0639C28.944 80.2136 25.1129 71.6413 29.7979 66.229C31.2869 64.5089 33.4026 63.5051 35.639 63.4572ZM32.1159 56.5331C31.5009 57.2434 30.6271 57.6583 29.7038 57.6777L9.33705 58.1112C9.11749 58.1157 8.97186 57.6045 9.1181 57.4355L55.6997 3.62218C57.5993 1.42772 60.2987 0.146775 63.152 0.0861018C65.249 0.0414596 66.9853 1.75806 67.0298 3.9202L67.2274 13.5294C67.2536 14.7988 66.8693 16.1173 66.1639 17.1577C66.0781 17.2844 65.9839 17.4071 65.8817 17.5252L32.1159 56.5331ZM32.9926 18.1743C35.341 18.1244 37.5627 17.0701 39.126 15.2639C44.046 9.58014 40.0233 0.578124 32.6336 0.735326L4.12164 1.34189C2.02447 1.38651 0.360462 3.17543 0.404973 5.33753L0.602779 14.9468C0.647291 17.1089 2.38346 18.8255 4.48062 18.7808L32.9926 18.1743Z" fill="#7B61FF"/>
</svg>
