<svg width="34" height="34" viewBox="0 0 34 34" fill="none" xmlns="http://www.w3.org/2000/svg">
<path fill-rule="evenodd" clip-rule="evenodd" d="M14.8536 14.6639L1.83617 8.1222L14.1511 16.4329L8.1375 15.9849L13.8465 16.8605L0 21.4449L14.5779 18.6147L10.0189 22.5417L14.6754 19.1235L8.1222 32.1638L16.4323 19.8498L15.9855 25.8476L16.8594 20.1499L21.4449 34L18.6108 19.402L22.5422 23.9662L19.1417 19.3337L32.1638 25.8778L19.8249 17.5509L25.8482 17.9996L20.1808 17.1304L34 12.5551L19.3805 15.3933L23.9668 11.4429L19.3452 14.8354L25.8778 1.83617L17.5503 14.176L18.0002 8.13692L17.1292 13.8157L12.5551 0L15.3894 14.5995L11.4435 10.0183L14.8536 14.6639Z" fill="white"/>
</svg>
